{"title":"The Imaginarium Of Doctor Parnassus 2009 BRRip 720p x264 AAC [VX","uid":7764735,"size":743976373,"categoryP":"video","categoryS":"hd___movies","magnet":"?xt=urn:btih:fe0308cea0d9a5075d6e5cd02eabcc24073ed3fc&amp;dn=The+Imaginarium+Of+Doctor+Parnassus+2009+BRRip+720p+x264+AAC+%5BVX&amp;tr=udp%3A%2F%2Ftracker.openbittorrent.com%3A80&amp;tr=udp%3A%2F%2Fopen.demonii.com%3A1337&amp;tr=udp%3A%2F%2Ftracker.coppersurfer.tk%3A6969&amp;tr=udp%3A%2F%2Fexodus.desync.com%3A6969","seeders":23,"leechers":3,"uploader":"Vitamin_X","files":29,"time":1351297168,"description":"   The Imaginarium Of Doctor Parnassus 2009 BRRip 720p x264 AAC [VX] [P2PDL] \n\nCover:  &lt;a href=&quot;\nhttp://www.shotpix.com/images/17548788666397324642.png&quot; rel=&quot;nofollow&quot; target=&quot;_NEW&quot;&gt;\nhttp://www.shotpix.com/images/17548788666397324642.png&lt;/a&gt;\n\n\nRelease Title: The Imaginarium of Doctor Parnassus (2009)\n\nGenres: Adventure | Fantasy | Mystery\n\nRatings: 6.9/10 |  &lt;a href=&quot;\nhttp://www.imdb.com/title/tt1054606/&quot; rel=&quot;nofollow&quot; target=&quot;_NEW&quot;&gt;\nhttp://www.imdb.com/title/tt1054606/&lt;/a&gt;\n\nPlot: A traveling theater company gives its audience much more than they were expecting.\n\nDirector: Terry Gilliam\n\nStars:  Christopher Plummer, Lily Cole, Heath Ledger and Johnny Depp \n\nRated: Rated PG-13 for violent images, some sensuality, language and smoking.\n\n\nGeneral\nFormat                         : MPEG-4\nFormat profile                 : Base Media / Version 2\nCodec ID                       : mp42\nFile size                      : 702 MiB\nDuration                       : 2h 2mn\n\nVideo\nID                             : 1\nFormat                         : AVC\nFormat/Info                    : Advanced Video Codec\nWidth                          : 1 280 pixels\nHeight                         : 688 pixels\nDisplay aspect ratio           : 1.860\nFrame rate                     : 23.976 fps\nColor space                    : YUV\nChroma subsampling             : 4:2:0\nBit depth                      : 8 bits\nScan type                      : Progressive\nStream size                    : 613 MiB (87%)\nWriting library                : x264 core 128\n\nAudio\nID                             : 2\nFormat                         : AAC\nFormat/Info                    : Advanced Audio Codec\nChannel positions              : Front: L R\nSampling rate                  : 48.0 KHz\nCompression mode               : Lossy\nStream size                    : 84.1 MiB (12%)\n\nSubtitles                      : Yes (English, French, Dutch, Romanian)\n\nScreens:\n &lt;a href=&quot;\nhttp://www.shotpix.com/images/50527613553299848950.jpg&quot; rel=&quot;nofollow&quot; target=&quot;_NEW&quot;&gt;\nhttp://www.shotpix.com/images/50527613553299848950.jpg&lt;/a&gt; &lt;a href=&quot;\nhttp://www.shotpix.com/images/88811755726145005943.jpg&quot; rel=&quot;nofollow&quot; target=&quot;_NEW&quot;&gt;\nhttp://www.shotpix.com/images/88811755726145005943.jpg&lt;/a&gt; &lt;a href=&quot;\nhttp://www.shotpix.com/images/62680950357588565101.jpg&quot; rel=&quot;nofollow&quot; target=&quot;_NEW&quot;&gt;\nhttp://www.shotpix.com/images/62680950357588565101.jpg&lt;/a&gt; &lt;a href=&quot;\nhttp://www.shotpix.com/images/04632608297837409841.jpg&quot; rel=&quot;nofollow&quot; target=&quot;_NEW&quot;&gt;\nhttp://www.shotpix.com/images/04632608297837409841.jpg&lt;/a&gt; &lt;a href=&quot;\nhttp://www.shotpix.com/images/44719731125286915911.jpg&quot; rel=&quot;nofollow&quot; target=&quot;_NEW&quot;&gt;\nhttp://www.shotpix.com/images/44719731125286915911.jpg&lt;/a&gt; &lt;a href=&quot;\nhttp://www.shotpix.com/images/92974582301242690505.jpg&quot; rel=&quot;nofollow&quot; target=&quot;_NEW&quot;&gt;\nhttp://www.shotpix.com/images/92974582301242690505.jpg&lt;/a&gt; &lt;a href=&quot;\nhttp://www.shotpix.com/images/25052171959636699298.jpg&quot; rel=&quot;nofollow&quot; target=&quot;_NEW&quot;&gt;\nhttp://www.shotpix.com/images/25052171959636699298.jpg&lt;/a&gt; &lt;a href=&quot;\nhttp://www.shotpix.com/images/23225490307986983217.jpg&quot; rel=&quot;nofollow&quot; target=&quot;_NEW&quot;&gt;\nhttp://www.shotpix.com/images/23225490307986983217.jpg&lt;/a&gt;\n\nThumbs:\n &lt;a href=&quot;\nhttp://www.shotpix.com/images/55040411549785801128.jpg&quot; rel=&quot;nofollow&quot; target=&quot;_NEW&quot;&gt;\nhttp://www.shotpix.com/images/55040411549785801128.jpg&lt;/a&gt;\n------------------------------------------------------------------------\n\n\nNotes:\n\n* Check sample to be sure.\n* Recommended to use latest version VLC Media Player.\n* Install updated shark007 codecs in case of any kind of problem in playback (For non-VLC Media Player users).\n* Alternatively, install Core AVC codecs, the fastest decoder that there is coupled with Community Center Codec Pack and play on Windows Media Player Classic.\n* Read NFO.\n* Help in seeding as much as you can. \n\n\nGreets to: VYTO, SirIvan, K1ng_rulz, staff members at ExtraTorrent, TPB,KAT, 1337x, PublicHD, Ahashare,\nSilverTorrent, TorrentMafia, Digtorrent, BTScene, P2PDL, and all others\n\n\nEncoder Notes: Looking For Early Access To Anything You Can Provide DVDScr, R5, DVDRips, BluRay, Direct Audio, Early Music\nReleases, Seedboxes, Links, Dedicated Servers anything u can provide, Advance / Promo CDs/DVDs. If You Got anything to\noffer contact me at &quot;&lt;a class=&quot;__cf_email__&quot; href=&quot;/cdn-cgi/l/email-protection&quot; data-cfemail=&quot;d1a1a3b691b9a4a2b9ffb2bebc&quot;&gt;[email&amp;#160;protected]&lt;/a&gt;&lt;script cf-hash='f9e31' type=&quot;text/javascript&quot;&gt;\n/* &lt;![CDATA[ */!function(){try{var t=&quot;currentScript&quot;in document?document.currentScript:function(){for(var t=document.getElementsByTagName(&quot;script&quot;),e=t.length;e--;)if(t[e].getAttribute(&quot;cf-hash&quot;))return t[e]}();if(t&amp;&amp;t.previousSibling){var e,r,n,i,c=t.previousSibling,a=c.getAttribute(&quot;data-cfemail&quot;);if(a){for(e=&quot;&quot;,r=parseInt(a.substr(0,2),16),n=2;a.length-n;n+=2)i=parseInt(a.substr(n,2),16)^r,e+=String.fromCharCode(i);e=document.createTextNode(e),c.parentNode.replaceChild(e,c)}}}catch(u){}}();/* ]]&gt; */&lt;/script&gt;&quot;\n\n\nFacebook Fan Page: www . facebook . com / p2pdl\n\nEnhanced for best viewing experience. Enjoy!","torrent":{"xt":"urn:btih:fe0308cea0d9a5075d6e5cd02eabcc24073ed3fc","amp;dn":"The+Imaginarium+Of+Doctor+Parnassus+2009+BRRip+720p+x264+AAC+%5BVX","amp;tr":["udp%3A%2F%2Ftracker.openbittorrent.com%3A80","udp%3A%2F%2Fopen.demonii.com%3A1337","udp%3A%2F%2Ftracker.coppersurfer.tk%3A6969","udp%3A%2F%2Fexodus.desync.com%3A6969"],"infoHash":"fe0308cea0d9a5075d6e5cd02eabcc24073ed3fc","infoHashBuffer":{"type":"Buffer","data":[254,3,8,206,160,217,165,7,93,110,92,208,46,171,204,36,7,62,211,252]},"announce":[],"urlList":[]}}